# xmcd CD database file
#
# Track frame offsets:
#	150
#	18495
#	36842
#
# Disc length: 709 seconds
#
# Revision: 0
# Processed by: cddbd v1.5.1PL0 Copyright (c) Steve Scherf et al.
# Submitted via: CDex 1.51
#
DISCID=1c02c303
DTITLE=Avril Lavigne - My Happy Ending
DYEAR=1900
DGENRE=Rock
TTITLE0=My Happy Ending (Radio Edit)
TTITLE1=My Happy Ending (Album Version)
TTITLE2=Don't Tell Me (Live Acoustic Version)
EXTD=
EXTT0=
EXTT1=
EXTT2=
PLAYORDER=
